<svg width="85" height="87" viewBox="0 0 85 87" fill="none" xmlns="http://www.w3.org/2000/svg">
<circle cx="42.5" cy="44.5" r="42.5" fill="black"/>
<path d="M19.425 53.2501V48.3688L35.8602 42.822V38.7543L30.9297 34.6866V21.6699C32.0254 19.7716 35.6959 15.9751 41.6125 15.9751C47.5292 15.9751 51.1997 19.7716 52.2954 21.6699V34.6866L47.3649 38.7543V42.822L63.8 48.3688V53.2501" stroke="white" stroke-width="1.775"/>
<path d="M22.3638 65.7248H23.3507L25.3713 61.0256C25.5241 60.6732 25.6063 60.4617 25.7708 59.8508V67.1345H26.8868V58.6643H25.1834L22.8925 64.2093L20.5429 58.6643H18.8277V67.1345H19.932V59.8508C20.12 60.4265 20.2257 60.6732 20.3667 61.0256L22.3638 65.7248ZM28.4565 58.6643V67.1345H33.8135V66.136H29.6195V63.293H33.4846V62.2944H29.6195V59.6628H33.7313V58.6643H28.4565ZM38.6614 65.7248H39.6482L41.6689 61.0256C41.8216 60.6732 41.9038 60.4617 42.0683 59.8508V67.1345H43.1844V58.6643H41.4809L39.1901 64.2093L36.8405 58.6643H35.1253V67.1345H36.2296V59.8508C36.4175 60.4265 36.5233 60.6732 36.6642 61.0256L38.6614 65.7248ZM44.754 67.1345H48.1257C49.9584 67.1345 50.8395 66.2887 50.8395 64.9024V64.6087C50.8395 63.4339 50.1228 62.823 49.089 62.6703C50.0993 62.4236 50.4518 61.7187 50.4518 60.9786V60.7319C50.4518 59.3456 49.5589 58.6643 47.7615 58.6643H44.754V67.1345ZM45.9171 63.1872H47.4325C49.1242 63.1872 49.6412 63.5867 49.6412 64.6205V64.8789C49.6412 65.8775 49.0185 66.1242 47.691 66.1242H45.9171V63.1872ZM47.3386 59.6628C48.6661 59.6628 49.2652 59.7568 49.2652 60.7554V60.9669C49.2652 62.0242 48.5956 62.2356 47.4208 62.2356H45.9171V59.6628H47.3386ZM51.8588 58.6643V67.1345H57.2158V66.136H53.0218V63.293H56.8869V62.2944H53.0218V59.6628H57.1336V58.6643H51.8588ZM59.6906 63.5984H61.5821H61.77L63.2973 67.1345H64.5543L62.8743 63.3752C63.7789 63.011 64.2958 62.2356 64.2958 61.2841V60.9786C64.2958 59.6393 63.3208 58.6643 61.5938 58.6643H58.5276V67.1345H59.6906V63.5984ZM59.6906 59.6628H61.4293C62.6041 59.6628 63.1328 60.1915 63.1328 61.0139V61.2488C63.1328 62.0829 62.6276 62.6116 61.3118 62.6116H59.6906V59.6628Z" fill="white"/>
</svg>
