<svg width="107" height="39" viewBox="0 0 107 39" fill="none" xmlns="http://www.w3.org/2000/svg">
<path d="M0.984 27.66V36.312H3.852C6.288 36.312 7.488 34.992 7.488 32.604V31.368C7.488 28.98 6.228 27.66 3.852 27.66H0.984ZM2.172 28.704H3.744C5.292 28.704 6.276 29.484 6.276 31.428V32.544C6.276 34.488 5.292 35.256 3.744 35.256H2.172V28.704ZM12.9571 36.444C15.0211 36.444 16.4731 35.184 16.4731 32.64V31.332C16.4731 28.812 15.0091 27.528 12.9571 27.528C10.9051 27.528 9.44109 28.812 9.44109 31.332V32.64C9.44109 35.184 10.8931 36.444 12.9571 36.444ZM12.9571 28.608C14.3131 28.608 15.2731 29.436 15.2731 31.464V32.508C15.2731 34.536 14.3131 35.364 12.9571 35.364C11.6131 35.364 10.6411 34.536 10.6411 32.508V31.464C10.6411 29.436 11.6131 28.608 12.9571 28.608ZM22.0298 36.444C24.0938 36.444 25.5458 35.184 25.5458 32.64V31.332C25.5458 28.812 24.0818 27.528 22.0298 27.528C19.9778 27.528 18.5138 28.812 18.5138 31.332V32.64C18.5138 35.184 19.9658 36.444 22.0298 36.444ZM22.0298 28.608C23.3858 28.608 24.3458 29.436 24.3458 31.464V32.508C24.3458 34.536 23.3858 35.364 22.0298 35.364C20.6858 35.364 19.7138 34.536 19.7138 32.508V31.464C19.7138 29.436 20.6858 28.608 22.0298 28.608ZM30.6104 35.364C29.8664 35.364 28.8104 34.944 28.1624 34.452L27.5624 35.424C28.2824 36 29.3504 36.444 30.5744 36.444C32.3504 36.444 33.6584 35.628 33.6584 34.044V33.828C33.6584 32.628 32.9984 31.872 30.8624 31.392C29.5784 31.104 28.8704 30.816 28.8704 30.024V29.832C28.8704 29.148 29.5784 28.596 30.6584 28.596C31.4504 28.596 32.0864 28.776 32.7224 29.208L33.2864 28.284C32.5544 27.792 31.7024 27.528 30.6464 27.528C28.6544 27.528 27.6824 28.668 27.6824 29.844V30.06C27.6824 31.62 28.9304 32.124 30.5624 32.472C31.9664 32.772 32.4584 33.156 32.4584 33.912V34.104C32.4584 34.788 31.8344 35.364 30.6104 35.364ZM40.9929 27.66V32.7C40.9929 34.644 40.3449 35.376 38.9649 35.376C37.5849 35.376 36.9369 34.644 36.9369 32.7V27.66H35.7489V32.844C35.7489 35.46 36.9129 36.444 38.9649 36.444C41.0169 36.444 42.1809 35.46 42.1809 32.844V27.66H40.9929ZM44.6481 27.66V36.312H45.7521V29.232C45.9561 29.748 46.1841 30.18 46.3641 30.504L49.7241 36.312H51.0921V27.66H49.9881V34.752C49.7841 34.236 49.5441 33.78 49.3761 33.492L46.0161 27.66H44.6481ZM60.0341 31.56H56.9261V32.58H58.8461V35.016C58.3901 35.244 57.7781 35.364 57.1301 35.364C55.5821 35.364 54.5861 34.488 54.5861 32.484V31.488C54.5861 29.484 55.4981 28.608 56.9981 28.608C57.8141 28.608 58.4981 28.8 59.2541 29.4L59.8661 28.44C59.0621 27.804 58.1141 27.528 56.9981 27.528C54.8021 27.528 53.3981 28.812 53.3981 31.332V32.64C53.3981 35.184 54.8021 36.444 57.0941 36.444C58.1741 36.444 59.2781 36.192 60.0341 35.664V31.56ZM65.9129 36.312H67.1009V32.94H69.0089C70.8929 32.94 71.8769 31.788 71.8769 30.384V30.132C71.8769 28.716 70.9649 27.66 69.0089 27.66H65.9129V36.312ZM68.9369 28.692C70.0529 28.692 70.6769 29.16 70.6769 30.144V30.36C70.6769 31.404 70.0529 31.908 68.8049 31.908H67.1009V28.692H68.9369ZM76.9221 27.66H75.7701L72.5541 36.312H73.7661L74.6781 33.768H77.9901L78.9021 36.312H80.1501L76.9221 27.66ZM75.7701 30.72C76.0221 30 76.0941 29.784 76.3341 28.98C76.5741 29.772 76.6461 30 76.9101 30.72L77.6301 32.748H75.0381L75.7701 30.72ZM81.9723 36.312H83.1603V32.94H85.0683C86.9523 32.94 87.9363 31.788 87.9363 30.384V30.132C87.9363 28.716 87.0243 27.66 85.0683 27.66H81.9723V36.312ZM84.9963 28.692C86.1123 28.692 86.7363 29.16 86.7363 30.144V30.36C86.7363 31.404 86.1123 31.908 84.8643 31.908H83.1603V28.692H84.9963ZM89.9785 27.66V36.312H95.4505V35.292H91.1665V32.388H95.1145V31.368H91.1665V28.68H95.3665V27.66H89.9785ZM98.9384 32.7H100.87H101.062L102.622 36.312H103.906L102.19 32.472C103.114 32.1 103.642 31.308 103.642 30.336V30.024C103.642 28.656 102.646 27.66 100.882 27.66H97.7504V36.312H98.9384V32.7ZM98.9384 28.68H100.714C101.914 28.68 102.454 29.22 102.454 30.06V30.3C102.454 31.152 101.938 31.692 100.594 31.692H98.9384V28.68Z" fill="black"/>
<path d="M21.4444 1H1V21H21.4444L36.5556 1.88889L50.7778 21L66.3333 1.88889L81 21" stroke="black" stroke-width="2"/>
<path d="M52 1H81" stroke="black" stroke-width="2"/>
<circle cx="96" cy="11" r="10" stroke="black" stroke-width="2"/>
</svg>
