<svg width="123" height="123" viewBox="0 0 123 123" fill="none" xmlns="http://www.w3.org/2000/svg">
<circle cx="61.5" cy="61.5" r="61.5" fill="black"/>
<path d="M38.425 66.25V61.3687L54.8602 55.8219V51.7542L49.9296 47.6865V34.6698C51.0253 32.7715 54.6958 28.975 60.6125 28.975C66.5292 28.975 70.1997 32.7715 71.2954 34.6698V47.6865L66.3648 51.7542V55.8219L82.8 61.3687V66.25" stroke="white" stroke-width="1.775"/>
<path d="M33.8085 88.402H35.2365L38.1605 81.602C38.3815 81.092 38.5005 80.786 38.7385 79.902V90.442H40.3535V78.185H37.8885L34.5735 86.209L31.1735 78.185H28.6915V90.442H30.2895V79.902C30.5615 80.735 30.7145 81.092 30.9185 81.602L33.8085 88.402ZM42.6248 78.185V90.442H50.3768V88.997H44.3078V84.883H49.9008V83.438H44.3078V79.63H50.2578V78.185H42.6248ZM57.392 88.402H58.82L61.744 81.602C61.965 81.092 62.084 80.786 62.322 79.902V90.442H63.937V78.185H61.472L58.157 86.209L54.757 78.185H52.275V90.442H53.873V79.902C54.145 80.735 54.298 81.092 54.502 81.602L57.392 88.402ZM66.2083 90.442H71.0873C73.7393 90.442 75.0143 89.218 75.0143 87.212V86.787C75.0143 85.087 73.9773 84.203 72.4813 83.982C73.9433 83.625 74.4533 82.605 74.4533 81.534V81.177C74.4533 79.171 73.1613 78.185 70.5603 78.185H66.2083V90.442ZM67.8913 84.73H70.0843C72.5323 84.73 73.2803 85.308 73.2803 86.804V87.178C73.2803 88.623 72.3793 88.98 70.4583 88.98H67.8913V84.73ZM69.9483 79.63C71.8693 79.63 72.7363 79.766 72.7363 81.211V81.517C72.7363 83.047 71.7673 83.353 70.0673 83.353H67.8913V79.63H69.9483ZM76.4894 78.185V90.442H84.2414V88.997H78.1724V84.883H83.7654V83.438H78.1724V79.63H84.1224V78.185H76.4894ZM87.8225 85.325H90.5595H90.8315L93.0415 90.442H94.8605L92.4295 85.002C93.7385 84.475 94.4865 83.353 94.4865 81.976V81.534C94.4865 79.596 93.0755 78.185 90.5765 78.185H86.1395V90.442H87.8225V85.325ZM87.8225 79.63H90.3385C92.0385 79.63 92.8035 80.395 92.8035 81.585V81.925C92.8035 83.132 92.0725 83.897 90.1685 83.897H87.8225V79.63Z" fill="white"/>
</svg>
