<svg width="34" height="34" viewBox="0 0 34 34" fill="none" xmlns="http://www.w3.org/2000/svg">
<path d="M27.6249 5.66659H23.3749V3.54159C23.3749 3.35372 23.3003 3.17356 23.1675 3.04072C23.0346 2.90788 22.8544 2.83325 22.6666 2.83325C22.4787 2.83325 22.2986 2.90788 22.1657 3.04072C22.0329 3.17356 21.9583 3.35372 21.9583 3.54159V5.66659H12.0416V3.54159C12.0416 3.35372 11.967 3.17356 11.8341 3.04072C11.7013 2.90788 11.5211 2.83325 11.3333 2.83325C11.1454 2.83325 10.9652 2.90788 10.8324 3.04072C10.6995 3.17356 10.6249 3.35372 10.6249 3.54159V5.66659H6.37492C5.43596 5.66771 4.53577 6.04121 3.87182 6.70516C3.20788 7.36911 2.83438 8.26929 2.83325 9.20825V27.6249C2.83438 28.5639 3.20788 29.4641 3.87182 30.128C4.53577 30.792 5.43596 31.1655 6.37492 31.1666H27.6249C28.564 31.1658 29.4644 30.7925 30.1284 30.1284C30.7925 29.4644 31.1658 28.564 31.1666 27.6249V9.20825C31.1658 8.26917 30.7925 7.36877 30.1284 6.70474C29.4644 6.04072 28.564 5.66734 27.6249 5.66659ZM29.7499 27.6249C29.7499 28.7979 28.7979 29.7499 27.6249 29.7499H6.37492C5.19909 29.7499 4.24992 28.7979 4.24992 27.6249V15.5833H29.7499V27.6249ZM29.7499 14.1666H4.24992V9.20825C4.24992 8.03525 5.19909 7.08325 6.37492 7.08325H10.6249V9.20825C10.6249 9.39611 10.6995 9.57628 10.8324 9.70912C10.9652 9.84196 11.1454 9.91659 11.3333 9.91659C11.5211 9.91659 11.7013 9.84196 11.8341 9.70912C11.967 9.57628 12.0416 9.39611 12.0416 9.20825V7.08325H21.9583V9.20825C21.9583 9.39611 22.0329 9.57628 22.1657 9.70912C22.2986 9.84196 22.4787 9.91659 22.6666 9.91659C22.8544 9.91659 23.0346 9.84196 23.1675 9.70912C23.3003 9.57628 23.3749 9.39611 23.3749 9.20825V7.08325H27.6249C28.7979 7.08325 29.7499 8.03525 29.7499 9.20825V14.1666Z" fill="black"/>
</svg>
